<?xml version="1.0" encoding="utf-8"?>
<!-- Generator: Adobe Illustrator 26.2.1, SVG Export Plug-In . SVG Version: 6.00 Build 0)  -->
<svg version="1.1" xmlns="http://www.w3.org/2000/svg" xmlns:xlink="http://www.w3.org/1999/xlink" x="0px" y="0px"
	 viewBox="0 0 327 90" style="enable-background:new 0 0 327 90;" xml:space="preserve">
<style type="text/css">
	.st0{fill:url(#SVGID_1_);}
	.st1{fill:url(#SVGID_00000027569351588456255120000005545641993546781116_);}
	.st2{fill:url(#SVGID_00000104671168750736132920000005373585001041295504_);}
	.st3{fill:url(#SVGID_00000174591042790536613450000008312257962879767693_);}
	.st4{fill:url(#SVGID_00000109722047961768908910000018444219728538099627_);}
	.st5{fill:url(#SVGID_00000109744626299451388210000017997538076918362041_);}
</style>
<g id="Capa_1">
	
		<g id="c990050b-1830-4e66-b95a-f5d3a8f9ac68" transform="matrix(4.97925329208374,0,0,4.97925329208374,109.61394500732422,-3.7717864513397217)">
		<path d="M3.8,14c0,0.1-0.1,0.2-0.2,0.2H-2c-0.1,0-0.2-0.1-0.2-0.2V5.6c0-0.1,0.1-0.2,0.2-0.2h5.4c0.1,0,0.2,0.1,0.2,0.2v1.2
			C3.6,6.9,3.5,7,3.4,7h-4v2h3.8c0.1,0,0.2,0.1,0.2,0.2v1.2c0,0.1-0.1,0.2-0.2,0.2h-3.8v2h4.2c0.1,0,0.2,0.1,0.2,0.2V14z M10.8,13.9
			L9.2,11l-0.2-0.4l-0.1-0.1c1.5-0.3,2.3-1.4,2.3-2.5c0-0.7-0.3-1.4-0.9-1.9C9.7,5.6,8.9,5.4,7.9,5.4h-3c-0.1,0-0.2,0.1-0.2,0.2v0.8
			l0.1,0.2v0L6.2,9H4.7v5c0,0.1,0.1,0.2,0.2,0.2h1.2c0.1,0,0.2-0.1,0.2-0.2v-3.4h0.8L7.3,11l1.8,3.1l0,0c0,0.1,0.1,0.1,0.2,0.1h1.4
			c0.1,0,0.2-0.1,0.2-0.2C10.8,14,10.8,13.9,10.8,13.9L10.8,13.9z M7.8,8.6L6.9,7h1C9,7,9.5,7.5,9.5,8c0,0.4-0.4,0.9-1.2,1
			C8.2,9,8.1,9,8,9L7.8,8.6z M15,7v5.6h1.3c0.1,0,0.3,0.1,0.3,0.2V14c0,0.1-0.1,0.2-0.3,0.2H12c-0.1,0-0.2-0.1-0.2-0.2v-1.2
			c0-0.1,0.1-0.2,0.2-0.2h1.4V7H12c-0.1,0-0.2-0.1-0.2-0.2V5.6c0-0.1,0.1-0.2,0.2-0.2h4.4c0.1,0,0.3,0.1,0.3,0.2v1.2
			c0,0.1-0.1,0.2-0.3,0.2H15z M23.8,14c0,0.1-0.1,0.2-0.2,0.2h-1.5c-0.1,0-0.1,0-0.2-0.1l0,0l-2.5-3.5V14c0,0.1-0.1,0.2-0.2,0.2
			h-1.2c-0.1,0-0.2-0.1-0.2-0.2V9h0.9l-0.9-3.3l0-0.1v0c0-0.1,0.1-0.2,0.2-0.2h1.3c0.1,0,0.2,0.1,0.2,0.1l0.8,2.9L22,5.5
			c0-0.1,0.1-0.1,0.2-0.1h1.4c0.1,0,0.2,0.1,0.2,0.2c0,0,0,0.1,0,0.1l0,0l-2.5,4.5l2.6,3.6l0,0C23.8,13.9,23.8,14,23.8,14z
			 M28.1,13.9c0,0.2-0.1,0.3-0.2,0.3h-1.2c-0.1,0-0.2-0.1-0.2-0.3V7h-1.8c-0.1,0-0.2-0.1-0.2-0.2c0,0,0-0.1,0-0.1c0,0,0,0,0,0
			l0.7-1.2c0,0,0,0,0,0c0-0.1,0.1-0.1,0.2-0.1h2.5c0.1,0,0.1,0,0.1,0.1c0,0,0.1,0.1,0.1,0.1V13.9z M34.6,6.9C34.6,7,34.6,7,34.6,6.9
			l0,0.1l-4.1,7l0,0c0,0.1-0.1,0.1-0.2,0.1H29c-0.1,0-0.2-0.1-0.2-0.2c0,0,0-0.1,0-0.1l0,0l4-6.9h-3.9c-0.1,0-0.2-0.1-0.2-0.2
			c0,0,0-0.1,0-0.1l0,0l0.7-1.2l0,0c0-0.1,0.1-0.1,0.2-0.1h4.8c0.1,0,0.2,0.1,0.2,0.2V6.9z M40.3,14c0,0.1-0.1,0.2-0.2,0.2h-4.6
			c-0.1,0-0.2-0.1-0.2-0.2v-1.3c0-0.1,0-0.1,0.1-0.1v0l3.3-3.9l0,0c0.1-0.2,0.2-0.4,0.2-0.6c0-0.5-0.5-1-1-1c-0.5,0-0.9,0.4-1,0.8
			c0,0.1-0.1,0.2-0.2,0.2h-1.2c-0.1,0-0.2-0.1-0.2-0.2v0c0.1-1.3,1.2-2.4,2.6-2.4c1,0,1.9,0.6,2.3,1.4c0.2,0.4,0.3,0.8,0.3,1.2
			c0,0.6-0.2,1.2-0.6,1.6l-0.1,0.1l-2.4,2.9h2.7c0.1,0,0.2,0.1,0.2,0.2V14z"/>
	</g>
</g>
<g id="Capa_2">
	<g>
		<linearGradient id="SVGID_1_" gradientUnits="userSpaceOnUse" x1="12.632" y1="12.8841" x2="92.2167" y2="76.854">
			<stop  offset="0.1867" style="stop-color:#CA13D0"/>
			<stop  offset="0.9217" style="stop-color:#1536F1"/>
		</linearGradient>
		<path class="st0" d="M3.8,46.6C5.6,47,6.1,48,7.6,48.8c1.2-2.2,3.7-5.1,2.1-8l0,0c1.4,1,2.6,2.1,3.6,3.5c2.6-1.8,4.2-4.8,4.2-8
			c0-1.5-0.5-2.9-1.3-4.1c2.5-1.6,3.8-2.3,6.9-2.8C28.8,15,47.1,5.6,52.2,3.2c-4.6,4.2-16.7,15.9-18.9,21.1c1.8-0.6,3.5-1.3,5.2-2
			c0,0.2,0,0.4,0,0.7c0,1-0.2,2-0.4,3c2.7-0.1,5.4-0.4,8.1-1c12.2-6,21.6-9.1,39.1-10.3c-7.9,2.2-24,10.8-32.4,17.6
			c-0.1,3.5-1.9,7-3.6,10.3l0,0c3.4-0.7,6.7-1.3,10.2-1.5c-5.4,4.4-3.5,8.9-13.2,13l0,0c1.7,0.7,3.2,1.6,4.7,2.6h-0.2
			c-5.2,0-8,3-15.4,5.1l0,0c1.6,0.6,3.1,1.4,4.6,2.3c-9.4,0.7-7.4,7-20.5,8.6l-1.1,1.7c0,0-2.3-1.1-2.4-5.4c0.1-1.3,0.3-2.5,0.6-3.8
			c2.1,1.6,2.3,2.6,5.1,3c1.7-0.8,4.1-1.5,5.6-3.3c-0.9,0.1-1.9,0.1-2.8,0.1s-1.8,0-2.7-0.1l0,0c2.8-0.9,5.3-2.2,7.6-4
			c-1.5,0.5-3,0.7-4.6,0.8c5-2.5,8.2-6.6,8.2-10.9c0-1.3-0.3-2.5-0.8-3.6C30,48,26.2,49.2,23.5,51c0.9,1.3,2.1,2.4,3.6,3.1
			c-0.3,0-0.6,0.1-0.8,0.1c-2.7-0.2-5.4-0.8-8-1.8c0,0.2,0,0.3,0,0.5c0.2,1.5,0.9,3,2,4C18,56.6,15.8,56,13.8,55
			c-0.1,0.5-0.2,0.9-0.2,1.4c0,1.3,0.5,2.6,1.3,3.7c-1.4-0.7-2.7-1.4-3.9-2.4c-0.4,0.8-0.8,1.7-1.1,2.6c-1-0.6-2.2-0.7-3.4-0.5
			s-2.2,0.8-2.9,1.7c0-0.2-0.5-4.1-0.5-4.4C3.2,52.9,5.7,50.6,3.8,46.6L3.8,46.6z M34.3,35.4c-6.3,1.1-6.6,3.5-8.9,7.9
			C31.1,42,32,39.4,34.3,35.4z"/>
		
			<linearGradient id="SVGID_00000100375780032449869220000010703585545817375634_" gradientUnits="userSpaceOnUse" x1="14.8909" y1="10.0739" x2="94.4755" y2="74.0438">
			<stop  offset="0.1867" style="stop-color:#CA13D0"/>
			<stop  offset="0.9217" style="stop-color:#1536F1"/>
		</linearGradient>
		<path style="fill:url(#SVGID_00000100375780032449869220000010703585545817375634_);" d="M55.7,53.5c10.8,0.3,21.3,3.3,30.6,8.7
			c-3.3-8.1-11-16.8-21.7-19.7C60.8,45.2,58.1,49.3,55.7,53.5L55.7,53.5z"/>
		
			<linearGradient id="SVGID_00000011748618029944552070000006200345597455839676_" gradientUnits="userSpaceOnUse" x1="6.463" y1="20.5589" x2="86.0476" y2="84.5289">
			<stop  offset="0.1867" style="stop-color:#CA13D0"/>
			<stop  offset="0.9217" style="stop-color:#1536F1"/>
		</linearGradient>
		<path style="fill:url(#SVGID_00000011748618029944552070000006200345597455839676_);" d="M62.5,59.6c-2.6,5-3.6,7.1-7.6,11.8
			c9-0.3,22-3.8,28.3,2.3C80.4,65.3,69.9,59.7,62.5,59.6L62.5,59.6z"/>
		
			<linearGradient id="SVGID_00000105387473460187254610000008655475829532086945_" gradientUnits="userSpaceOnUse" x1="22.7328" y1="0.3178" x2="102.3174" y2="64.2877">
			<stop  offset="0.1867" style="stop-color:#CA13D0"/>
			<stop  offset="0.9217" style="stop-color:#1536F1"/>
		</linearGradient>
		<path style="fill:url(#SVGID_00000105387473460187254610000008655475829532086945_);" d="M87.2,41.3c0,0-10.7-15.5-27.8-10.2
			l-3.3,8.2C63.4,36.2,80.4,38.8,87.2,41.3L87.2,41.3z"/>
		
			<linearGradient id="SVGID_00000031914773513673556180000017162565951223409068_" gradientUnits="userSpaceOnUse" x1="1.972" y1="26.1462" x2="81.5566" y2="90.1161">
			<stop  offset="0.1867" style="stop-color:#CA13D0"/>
			<stop  offset="0.9217" style="stop-color:#1536F1"/>
		</linearGradient>
		<path style="fill:url(#SVGID_00000031914773513673556180000017162565951223409068_);" d="M56.6,59.5c0,0-3,6.2-7,9.6l-9.2-1.4
			C43.1,64.7,49.7,61.5,56.6,59.5L56.6,59.5z"/>
		
			<linearGradient id="SVGID_00000106114177378845258070000018010297440893335944_" gradientUnits="userSpaceOnUse" x1="-4.8888" y1="34.6817" x2="74.6958" y2="98.6516">
			<stop  offset="0.1867" style="stop-color:#CA13D0"/>
			<stop  offset="0.9217" style="stop-color:#1536F1"/>
		</linearGradient>
		<path style="fill:url(#SVGID_00000106114177378845258070000018010297440893335944_);" d="M75.1,74.5c-3.6,1-7.4,1.6-11.2,1.5
			c-3.9-0.2-7.7-1.2-11.2-3c0,0-9.2,10.2-28.3,9.6C24.5,82.7,57.1,95.9,75.1,74.5L75.1,74.5z"/>
	</g>
</g>
</svg>
