<?xml version="1.0" encoding="utf-8"?>
<!-- Generator: Adobe Illustrator 26.1.0, SVG Export Plug-In . SVG Version: 6.00 Build 0)  -->
<svg version="1.1" id="Capa_1" xmlns="http://www.w3.org/2000/svg" xmlns:xlink="http://www.w3.org/1999/xlink" x="0px" y="0px"
	 viewBox="0 0 458.1 90" style="enable-background:new 0 0 458.1 90;" xml:space="preserve">
<style type="text/css">
	.st0{fill:url(#SVGID_1_);}
	.st1{fill:url(#SVGID_00000106834535642560119180000016661323730335725744_);}
	.st2{fill:url(#SVGID_00000053545917273770056050000011210272128125552057_);}
	.st3{fill:url(#SVGID_00000025422703301650743180000002300945054215727535_);}
	.st4{fill:url(#SVGID_00000150070493074238083200000013827860497085241476_);}
	.st5{fill:url(#SVGID_00000029005330863167678550000013625411052202149277_);}
	.st6{fill:url(#SVGID_00000073001756939481046900000004937741619180599445_);}
	.st7{fill:url(#SVGID_00000038378304521928709330000012543449808343053750_);}
</style>
<g id="c990050b-1830-4e66-b95a-f5d3a8f9ac68" transform="matrix(4.97925329208374,0,0,4.97925329208374,109.61394500732422,-3.7717864513397217)">
	<path d="M7.9,14.7c0,0.1-0.1,0.2-0.2,0.2H1.1c-0.1,0-0.2-0.1-0.2-0.2V4.9c0-0.1,0.1-0.2,0.2-0.2h6.3c0.1,0,0.2,0.1,0.2,0.2v1.4
		c0,0.1-0.1,0.2-0.2,0.2H2.8v2.3h4.4c0.1,0,0.2,0.1,0.2,0.2v1.4c0,0.1-0.1,0.2-0.2,0.2H2.8V13h4.9c0.1,0,0.2,0.1,0.2,0.2V14.7z
		 M15.9,14.5l-1.9-3.3l-0.3-0.4l-0.1-0.1c1.7-0.4,2.6-1.7,2.6-2.9c0-0.8-0.4-1.6-1-2.1c-0.7-0.6-1.6-0.9-2.7-0.9H9.2
		C9,4.7,8.9,4.8,8.9,4.9v0.9L9,6.1v0l1.6,2.8H8.9v5.8c0,0.1,0.1,0.2,0.2,0.2h1.4c0.1,0,0.2-0.1,0.2-0.2v-3.9h0.9l0.2,0.4l2,3.6l0,0
		c0,0.1,0.1,0.1,0.2,0.1h1.6c0.1,0,0.2-0.1,0.2-0.2C16,14.6,16,14.6,15.9,14.5L15.9,14.5z M12.5,8.4l-1.1-1.9h1.2
		c1.3,0,1.9,0.6,1.9,1.2c0,0.5-0.4,1-1.4,1.1c-0.1,0-0.2,0-0.3,0L12.5,8.4z M20.8,6.5V13h1.6c0.2,0,0.3,0.1,0.3,0.2v1.4
		c0,0.1-0.1,0.2-0.3,0.2h-5c-0.1,0-0.2-0.1-0.2-0.2v-1.4c0-0.1,0.1-0.2,0.2-0.2h1.6V6.5h-1.6c-0.1,0-0.2-0.1-0.2-0.2V4.9
		c0-0.1,0.1-0.2,0.2-0.2h5c0.2,0,0.3,0.1,0.3,0.2v1.4c0,0.1-0.1,0.2-0.3,0.2H20.8z M31,14.7c0,0.1-0.1,0.2-0.2,0.2h-1.7
		c-0.1,0-0.1,0-0.2-0.1l0,0l-2.9-4v3.9c0,0.1-0.1,0.2-0.2,0.2h-1.4c-0.1,0-0.2-0.1-0.2-0.2V8.9h1.1l-1.1-3.8l0-0.1v0
		c0-0.1,0.1-0.2,0.2-0.2h1.4c0.1,0,0.2,0.1,0.2,0.2L27,8.2l1.9-3.4c0-0.1,0.1-0.1,0.2-0.1h1.6c0.1,0,0.2,0.1,0.2,0.2
		c0,0,0,0.1,0,0.1l0,0L28,10.3l3,4.2l0,0C31,14.6,31,14.6,31,14.7z M35.9,14.5c0,0.2-0.1,0.4-0.2,0.4h-1.4c-0.1,0-0.2-0.2-0.2-0.4
		v-8h-2.1c-0.1,0-0.2-0.1-0.2-0.2c0,0,0-0.1,0-0.1c0,0,0,0,0,0l0.8-1.4c0,0,0,0,0,0c0-0.1,0.1-0.1,0.2-0.1h2.9c0.1,0,0.1,0,0.2,0.1
		c0,0.1,0.1,0.1,0.1,0.2V14.5z M43.5,6.5c0,0,0,0.1,0,0.1l0,0l-4.7,8.1l0,0c-0.1,0.1-0.1,0.1-0.2,0.1H37c-0.1,0-0.2-0.1-0.2-0.2
		c0,0,0-0.1,0-0.1l0,0l4.6-8h-4.5c-0.1,0-0.2-0.1-0.2-0.2c0,0,0-0.1,0-0.1l0,0l0.8-1.3l0,0c0-0.1,0.1-0.1,0.2-0.1h5.6
		c0.2,0,0.3,0.1,0.3,0.2V6.5z M50,14.7c0,0.1-0.1,0.2-0.2,0.2h-5.3c-0.1,0-0.2-0.1-0.2-0.2v-1.5c0-0.1,0-0.1,0.1-0.2v0l3.8-4.5l0,0
		c0.2-0.2,0.3-0.4,0.3-0.7c0-0.6-0.5-1.2-1.2-1.2c-0.6,0-1,0.4-1.1,0.9c0,0.1-0.1,0.2-0.2,0.2h-1.4c-0.1,0-0.2-0.1-0.2-0.2v0
		c0.1-1.5,1.4-2.7,3-2.7c1.2,0,2.2,0.7,2.7,1.6c0.2,0.4,0.3,0.9,0.3,1.4c0,0.7-0.2,1.4-0.7,1.9l-0.1,0.1L46.6,13h3.1
		c0.1,0,0.2,0.1,0.2,0.2V14.7z"/>
</g>
<g id="cd8574bd-7273-4fa9-82e6-28ca6718a012" transform="matrix(1.0580642223358154,0,0,1.0580642223358154,-5.557147979736328,-7.433738708496094)">
	
		<linearGradient id="SVGID_1_" gradientUnits="userSpaceOnUse" x1="-311.8975" y1="1191.4318" x2="-310.8975" y2="1191.4318" gradientTransform="matrix(18.4029 25.0077 8.5814 -53.6292 -4425.2837 71733.7266)">
		<stop  offset="0" style="stop-color:#E90DCA"/>
		<stop  offset="1" style="stop-color:#1536F1"/>
	</linearGradient>
	<path class="st0" d="M81.3,43.7l-2.3-10.3l-5-7.8l-7.8-6.1l5.5,7.5l4,7l2.2,9.7l-0.6,9.6l-3.6,8.4l-5.4,7.4l-6,6.3l7.9-4.8l6.6-7.2
		l4-9.1L81.3,43.7z"/>
	
		<linearGradient id="SVGID_00000147187209712595990340000003902241677083710091_" gradientUnits="userSpaceOnUse" x1="-304.3696" y1="1195.3514" x2="-303.3696" y2="1195.3514" gradientTransform="matrix(12.2206 25.5067 5.6986 -54.6994 -3017.1499 73179.1719)">
		<stop  offset="0" style="stop-color:#E90DCA"/>
		<stop  offset="1" style="stop-color:#1536F1"/>
	</linearGradient>
	<path style="fill:url(#SVGID_00000147187209712595990340000003902241677083710091_);" d="M88.1,25.1l-4.9-9L77,11.8l4.8,5.6
		l4.3,8.4l1.4,10.8l-0.4,11.4l-3.3,9.3l-6.2,11.6l7.6-10l4.1-10.4l0.4-11.9L88.1,25.1z"/>
	
		<linearGradient id="SVGID_00000163062236900998775340000013258746956564151691_" gradientUnits="userSpaceOnUse" x1="-315.865" y1="1180.9015" x2="-314.865" y2="1180.9015" gradientTransform="matrix(35.7327 17.4923 16.6624 -37.5125 -8345.2012 49836.8164)">
		<stop  offset="0" style="stop-color:#E90DCA"/>
		<stop  offset="1" style="stop-color:#1536F1"/>
	</linearGradient>
	<path style="fill:url(#SVGID_00000163062236900998775340000013258746956564151691_);" d="M80.3,27.3l2.7,8.3l1.4,10.5l0.3-10.8
		L82.1,26l-7.8-9.7L66.4,10L56.3,7l-8.8,0l8.2,1.7l9.7,3.5l7.5,6L80.3,27.3z"/>
	
		<linearGradient id="SVGID_00000067943646963308768120000002286483746514539395_" gradientUnits="userSpaceOnUse" x1="-326.3833" y1="1191.4601" x2="-325.3833" y2="1191.4601" gradientTransform="matrix(85.6403 36.9973 39.9347 -79.3411 -19634.0723 106636.9375)">
		<stop  offset="0" style="stop-color:#E90DCA"/>
		<stop  offset="1" style="stop-color:#1536F1"/>
	</linearGradient>
	<path style="fill:url(#SVGID_00000067943646963308768120000002286483746514539395_);" d="M92.2,29.7l0.3,7.5l-0.7,12l-3.3,10
		l-3.8,6.3l-5.3,5.7l-5.5,5.3l2.8-6.3L66,76.7l-6.6,0.4l3.1-7.5L54,71.7l4-4.9l4.6-9.7L56.2,59l4.3-7.4l2.3-9.1l-5.3,2.2l0.7-4.5
		l-1-4.6l1.5,0.4l3.1,2.8l-2.2-5.5L56.1,29l-5-4.3l-5.2-3l-4.7-1.7l-3.8-0.6L42,16l4.3-6.6l-5.9,4.5l-4.5,2.1l0.6-2.3l0.1-3.3
		l-3.7,6.2L28.3,19l-3.9,3.8l-7.3,2.2l-2.2,3.5l-2.7,1.2l-2.6,0.3l-4.3,2.2l1.2,3.6L9.7,39l0.8-4.1l1.3,0.5l0.6-1.6l3.7-1.6l3.6,0.8
		L14,36.5l-1.7,2.2l6.6-3l-2.4,5.3l-3.7-0.7l0.6,2.5l1.3,1.5l3,1.5l2.4-4.2l3.7-3.3l4.5-1l5.1,0.4l3.1,1.1l4.4-1.5l2.4-1.3l-1.8,1.8
		l-2.6,2l-2.3,1l0.4,3.3l-1,3.5l6.4-0.3l-3.1,1.4l-3.4,0.8l-2.1,5.3l2.8,0.8l4.5,0.7L36,57l-3.3-0.4l-3.6,3.7l3.8,1.9l4.2,1.2
		l-4.5,0.2l-5.9-1.5l-6.7,4.3l-1.7,8.3l2.8-2.6l2.4,7l5.4,6.8l6.9,4.3l0.1-3.3l5.6,2.7l7.7,1.9L60,92.1l-4.5-3.6l10.8-2l8.9-4.3
		l7.6-7.1l4.9-7.2l3.7-7.1l2.9-10.8l0.4-12.6l0,0L92.2,29.7L92.2,29.7z M21,28.3l-2.1,0.9l1-2.4l4.6-1.2C24.5,25.6,21,28.3,21,28.3z
		 M37.7,25.9l-5.2,0.2l1.8-2.7l4.4,0.2l5,1.4l5.7,2.7l6,5.6L49,29.1l-5.7-2.3C43.2,26.8,37.7,25.9,37.7,25.9z"/>
</g>
<g>
	<g>
		
			<linearGradient id="SVGID_00000165940542359429322890000003889588822028205461_" gradientUnits="userSpaceOnUse" x1="387.1663" y1="45" x2="413.9102" y2="45">
			<stop  offset="0" style="stop-color:#E90DCA"/>
			<stop  offset="1" style="stop-color:#1536F1"/>
		</linearGradient>
		<path style="fill:url(#SVGID_00000165940542359429322890000003889588822028205461_);" d="M379.2,47.8h8.3v1.9h-8.3V47.8z
			 M401.9,13.6h10.6c0.1,0.6,3.6,12.1,10.3,34.4h1.9v20.7h-4.4v1.6h4.4v4.4H413V61.9h-14.3v5.4h-5.8v9.1h-10.6v-0.6h0.8v-8.5h4.4
			V49.7h3.6L401.9,13.6z M385.4,64.1h0.4c0.2,0,0.6,1,1.1,2.9h-0.6c0-0.1-0.1-0.3-0.2-0.7h-1c-0.1,0.4-0.2,0.7-0.3,0.7h-0.5
			C384.9,65,385.2,64.1,385.4,64.1z M385.5,65c-0.1,0.5-0.2,0.7-0.2,0.7h0.5L385.5,65L385.5,65z M388.1,46.6h1
			c0,0.3,0.1,0.5,0.4,0.7c0-0.3,0.2-0.5,0.4-0.7h0.7v0.1c-0.5,0.7-0.7,1.1-0.7,1.2c0.1,0.3,0.4,0.7,0.8,1.3v0.2h-0.4
			c-0.4,0-0.7-0.3-0.9-0.9c-0.4,0.6-0.7,0.9-0.7,0.9h-0.5c-0.1,0-0.2-0.1-0.2-0.2c0.1,0,0.4-0.4,0.9-1.2v-0.2
			C388.3,47,388.1,46.6,388.1,46.6z M401.9,62.8v0.6c0,0.1-0.6,0.4-1.7,0.7v0.1l1.7,0.6v0.7l-2.7-1v-0.7L401.9,62.8z M406.8,31.3
			v0.1c-0.9,5-2.7,12.9-5.3,23.6h9.8v-7.1h-0.8c-2.3-10.2-3.5-15.7-3.5-16.7H406.8z M408.8,52h0.6V53l1.2-1.1h0.6v0.1l-0.9,1.1
			c0.7,1,1.1,1.6,1.1,1.7h-0.7c-0.1,0-0.4-0.4-1-1.1c-0.1,0-0.2,0.1-0.3,0.3v0.8h-0.6V52z M413,75.4h14.2v1.1H413V75.4z M425,56.6h2
			c0.1,0,0.2,0.1,0.2,0.2v0.2c0,0.1-0.1,0.2-0.2,0.2h-0.6v2.2h-0.7v-2.2H425c-0.1,0-0.2-0.1-0.2-0.2v-0.2
			C424.8,56.7,424.9,56.6,425,56.6z M424.8,60.4h0.5c0.2,0,0.4,0.6,0.7,1.8h0.1c0.4-1.1,0.5-1.7,0.5-1.8h0.7
			c-0.6,1.9-0.9,2.9-1.1,2.9h-0.6L424.8,60.4z M425,49.2h2.2v0.5l-1.4,1.7h1.3c0.1,0,0.2,0.1,0.2,0.2v0.2c0,0.1-0.1,0.2-0.2,0.2
			h-2.2v-0.5l1.4-1.7H425V49.2z M426.2,64.1h0.3c0.7,0,1.1,0.5,1.3,1.5c-0.2,1-0.7,1.5-1.4,1.5c-1-0.2-1.5-0.7-1.5-1.5
			C425,64.5,425.5,64.1,426.2,64.1z M425.2,52.9h1.3c0.6,0.1,1,0.4,1,1l-0.3,0.5c0.2,0.2,0.3,0.7,0.3,1.3v0.1h-0.7
			c-0.1-0.7-0.2-1.1-0.3-1.1h-0.7v1.1h-0.5c-0.1,0-0.2-0.1-0.2-0.2v-2.4C425,53,425.1,52.9,425.2,52.9z M425.6,65.5L425.6,65.5
			c0,0.5,0.2,0.8,0.5,1h0.3c0.4-0.2,0.5-0.5,0.5-0.9v-0.1c-0.1-0.6-0.3-0.8-0.7-0.8C425.9,64.8,425.6,65,425.6,65.5z M425.7,53.5
			v0.7h0.7c0.1,0,0.2-0.1,0.2-0.2v-0.4H425.7z"/>
		
			<linearGradient id="SVGID_00000072258053533331658250000004100865300269002635_" gradientUnits="userSpaceOnUse" x1="387.1663" y1="45" x2="413.9102" y2="45">
			<stop  offset="0" style="stop-color:#E90DCA"/>
			<stop  offset="1" style="stop-color:#1536F1"/>
		</linearGradient>
		<path style="fill:url(#SVGID_00000072258053533331658250000004100865300269002635_);" d="M431.2,13.5h11.9c0.1,0,0.2,0.1,0.2,0.2
			v30.6c0,0.1-0.1,0.2-0.2,0.2h-1.4v31.7c0,0.1-0.1,0.2-0.2,0.2h-10.2c-0.1,0-0.2-0.1-0.2-0.2V43.8h-3.2c-0.1,0-0.2-0.1-0.2-0.2
			v-1.4c0-0.1,0.1-0.2,0.2-0.2h3.2V13.7C431,13.6,431.1,13.5,431.2,13.5z M431.1,42v1.8h6.1V42H431.1z"/>
	</g>
	<g>
		
			<linearGradient id="SVGID_00000055700110373500031510000000689714391568923291_" gradientUnits="userSpaceOnUse" x1="388.6656" y1="39.8478" x2="426.7913" y2="62.5726">
			<stop  offset="0" style="stop-color:#E90DCA"/>
			<stop  offset="6.990246e-02" style="stop-color:#DF0FCC"/>
			<stop  offset="0.1871" style="stop-color:#C514D1"/>
			<stop  offset="0.3373" style="stop-color:#9B1CD8"/>
			<stop  offset="0.5147" style="stop-color:#6027E3"/>
			<stop  offset="0.7128" style="stop-color:#1636F1"/>
			<stop  offset="0.716" style="stop-color:#1536F1"/>
		</linearGradient>
		<path style="fill:url(#SVGID_00000055700110373500031510000000689714391568923291_);" d="M379.2,47.8h8.3v1.9h-8.3V47.8z
			 M401.9,13.6h10.6c0.1,0.6,3.6,12.1,10.3,34.4h1.9v20.7h-4.4v1.6h4.4v4.4H413V61.9h-14.3v5.4h-5.8v9.1h-10.6v-0.6h0.8v-8.5h4.4
			V49.7h3.6L401.9,13.6z M385.4,64.1h0.4c0.2,0,0.6,1,1.1,2.9h-0.6c0-0.1-0.1-0.3-0.2-0.7h-1c-0.1,0.4-0.2,0.7-0.3,0.7h-0.5
			C384.9,65,385.2,64.1,385.4,64.1z M385.5,65c-0.1,0.5-0.2,0.7-0.2,0.7h0.5L385.5,65L385.5,65z M388.1,46.6h1
			c0,0.3,0.1,0.5,0.4,0.7c0-0.3,0.2-0.5,0.4-0.7h0.7v0.1c-0.5,0.7-0.7,1.1-0.7,1.2c0.1,0.3,0.4,0.7,0.8,1.3v0.2h-0.4
			c-0.4,0-0.7-0.3-0.9-0.9c-0.4,0.6-0.7,0.9-0.7,0.9h-0.5c-0.1,0-0.2-0.1-0.2-0.2c0.1,0,0.4-0.4,0.9-1.2v-0.2
			C388.3,47,388.1,46.6,388.1,46.6z M401.9,62.8v0.6c0,0.1-0.6,0.4-1.7,0.7v0.1l1.7,0.6v0.7l-2.7-1v-0.7L401.9,62.8z M406.8,31.3
			v0.1c-0.9,5-2.7,12.9-5.3,23.6h9.8v-7.1h-0.8c-2.3-10.2-3.5-15.7-3.5-16.7H406.8z M408.8,52h0.6V53l1.2-1.1h0.6v0.1l-0.9,1.1
			c0.7,1,1.1,1.6,1.1,1.7h-0.7c-0.1,0-0.4-0.4-1-1.1c-0.1,0-0.2,0.1-0.3,0.3v0.8h-0.6V52z M413,75.4h14.2v1.1H413V75.4z M425,56.6h2
			c0.1,0,0.2,0.1,0.2,0.2v0.2c0,0.1-0.1,0.2-0.2,0.2h-0.6v2.2h-0.7v-2.2H425c-0.1,0-0.2-0.1-0.2-0.2v-0.2
			C424.8,56.7,424.9,56.6,425,56.6z M424.8,60.4h0.5c0.2,0,0.4,0.6,0.7,1.8h0.1c0.4-1.1,0.5-1.7,0.5-1.8h0.7
			c-0.6,1.9-0.9,2.9-1.1,2.9h-0.6L424.8,60.4z M425,49.2h2.2v0.5l-1.4,1.7h1.3c0.1,0,0.2,0.1,0.2,0.2v0.2c0,0.1-0.1,0.2-0.2,0.2
			h-2.2v-0.5l1.4-1.7H425V49.2z M426.2,64.1h0.3c0.7,0,1.1,0.5,1.3,1.5c-0.2,1-0.7,1.5-1.4,1.5c-1-0.2-1.5-0.7-1.5-1.5
			C425,64.5,425.5,64.1,426.2,64.1z M425.2,52.9h1.3c0.6,0.1,1,0.4,1,1l-0.3,0.5c0.2,0.2,0.3,0.7,0.3,1.3v0.1h-0.7
			c-0.1-0.7-0.2-1.1-0.3-1.1h-0.7v1.1h-0.5c-0.1,0-0.2-0.1-0.2-0.2v-2.4C425,53,425.1,52.9,425.2,52.9z M425.6,65.5L425.6,65.5
			c0,0.5,0.2,0.8,0.5,1h0.3c0.4-0.2,0.5-0.5,0.5-0.9v-0.1c-0.1-0.6-0.3-0.8-0.7-0.8C425.9,64.8,425.6,65,425.6,65.5z M425.7,53.5
			v0.7h0.7c0.1,0,0.2-0.1,0.2-0.2v-0.4H425.7z"/>
		
			<linearGradient id="SVGID_00000044142264950816054390000009697422626437909143_" gradientUnits="userSpaceOnUse" x1="428.9898" y1="41.6657" x2="449.2786" y2="49.9726">
			<stop  offset="0" style="stop-color:#E90DCA"/>
			<stop  offset="0.3553" style="stop-color:#991CD9"/>
			<stop  offset="0.7995" style="stop-color:#3B2FEA"/>
			<stop  offset="1" style="stop-color:#1536F1"/>
		</linearGradient>
		<path style="fill:url(#SVGID_00000044142264950816054390000009697422626437909143_);" d="M431.2,13.5h11.9c0.1,0,0.2,0.1,0.2,0.2
			v30.6c0,0.1-0.1,0.2-0.2,0.2h-1.4v31.7c0,0.1-0.1,0.2-0.2,0.2h-10.2c-0.1,0-0.2-0.1-0.2-0.2V43.8h-3.2c-0.1,0-0.2-0.1-0.2-0.2
			v-1.4c0-0.1,0.1-0.2,0.2-0.2h3.2V13.7C431,13.6,431.1,13.5,431.2,13.5z M431.1,42v1.8h6.1V42H431.1z"/>
	</g>
</g>
</svg>
